<svg xmlns="http://www.w3.org/2000/svg" viewBox="0 0 1024 1024">
  <defs>
    <clipPath id="sq"><rect x="32" y="32" width="960" height="960" rx="200"/></clipPath>
    <clipPath id="eye"><path d="M 130 480 Q 512 150 894 480 Q 512 810 130 480 Z"/></clipPath>
  </defs>
  <g clip-path="url(#sq)">
    <rect x="32" y="32" width="960" height="960" fill="#EDE5D2"/>
    <line x1="60" y1="900" x2="960" y2="140" stroke="#141414" stroke-width="9"/>
    <g clip-path="url(#eye)">
      <rect x="32" y="32" width="960" height="960" fill="#F6F0E1"/>
      <circle cx="512" cy="480" r="170" fill="#2E8FA3"/>
      <circle cx="512" cy="480" r="112" fill="#EFC42B"/>
      <circle cx="512" cy="480" r="62"  fill="#D9452B"/>
      <circle cx="512" cy="480" r="26"  fill="#141414"/>
      <circle cx="560" cy="432" r="20"  fill="#F6F0E1"/>
    </g>
    <path d="M 130 480 Q 512 150 894 480 Q 512 810 130 480 Z" fill="none" stroke="#141414" stroke-width="26"/>
    <line x1="330" y1="252" x2="300" y2="180" stroke="#141414" stroke-width="14"/>
    <line x1="512" y1="212" x2="512" y2="130" stroke="#141414" stroke-width="14"/>
    <line x1="694" y1="252" x2="724" y2="180" stroke="#141414" stroke-width="14"/>
    <rect x="640" y="836" width="44" height="60"  fill="#2E8FA3" stroke="#141414" stroke-width="7"/>
    <rect x="706" y="806" width="44" height="90"  fill="#EFC42B" stroke="#141414" stroke-width="7"/>
    <rect x="772" y="762" width="44" height="134" fill="#D9452B" stroke="#141414" stroke-width="7"/>
    <line x1="616" y1="900" x2="852" y2="900" stroke="#141414" stroke-width="11"/>
    <circle cx="180" cy="800" r="30" fill="#EFC42B" stroke="#141414" stroke-width="8"/>
    <circle cx="252" cy="856" r="14" fill="#D9452B"/>
  </g>
</svg>
