<svg xmlns="http://www.w3.org/2000/svg" viewBox="0 0 920 660" font-family="-apple-system,BlinkMacSystemFont,Helvetica,Arial,sans-serif">
  <defs>
    <linearGradient id="win" x1="0" y1="0" x2="0" y2="1">
      <stop offset="0" stop-color="#242428"/>
      <stop offset="1" stop-color="#191919"/>
    </linearGradient>
  </defs>

  <rect x="0" y="0" width="920" height="660" rx="14" fill="url(#win)"/>
  <!-- traffic lights -->
  <circle cx="26" cy="24" r="7" fill="#ff5f57"/>
  <circle cx="48" cy="24" r="7" fill="#febc2e"/>
  <circle cx="70" cy="24" r="7" fill="#28c840"/>

  <!-- Governor ring -->
  <circle cx="140" cy="185" r="72" fill="none" stroke="#ffffff" stroke-opacity="0.14" stroke-width="15"/>
  <path d="M140,113 A72,72 0 0 1 205.2,215.7" fill="none" stroke="#30b0c7" stroke-width="15" stroke-linecap="round"/>
  <text x="140" y="188" text-anchor="middle" fill="#30b0c7" font-size="30" font-weight="800">&#9660;0.4&#215;</text>
  <text x="140" y="210" text-anchor="middle" fill="#98989d" font-size="12">resets Wed 20:00</text>
  <text x="140" y="288" text-anchor="middle" fill="#98989d" font-size="11" font-weight="700" letter-spacing="0.5">MIX &#183; WEEKLY BINDING</text>

  <!-- LIMITS card -->
  <rect x="300" y="60" width="596" height="98" rx="12" fill="#ffffff" fill-opacity="0.05" stroke="#ffffff" stroke-opacity="0.08"/>
  <text x="320" y="86" fill="#98989d" font-size="10.5" font-weight="700" letter-spacing="0.5">5H WINDOW</text>
  <rect x="320" y="96" width="250" height="10" rx="5" fill="#ffffff" fill-opacity="0.14"/>
  <rect x="320" y="96" width="33" height="10" rx="5" fill="#30b0c7"/>
  <text x="320" y="128" fill="#e8e8ea" font-size="12">13%</text>
  <text x="570" y="128" text-anchor="end" fill="#98989d" font-size="11">&#8635; 20:00</text>
  <text x="620" y="86" fill="#98989d" font-size="10.5" font-weight="700" letter-spacing="0.5">WEEKLY</text>
  <rect x="620" y="96" width="256" height="10" rx="5" fill="#ffffff" fill-opacity="0.14"/>
  <rect x="620" y="96" width="82" height="10" rx="5" fill="#30b0c7"/>
  <text x="620" y="128" fill="#e8e8ea" font-size="12">32%</text>
  <text x="876" y="128" text-anchor="end" fill="#98989d" font-size="11">&#8635; Wed 20:00</text>

  <!-- MODEL MIX card -->
  <rect x="300" y="170" width="596" height="70" rx="12" fill="#ffffff" fill-opacity="0.05" stroke="#ffffff" stroke-opacity="0.08"/>
  <text x="320" y="196" fill="#98989d" font-size="10.5" font-weight="700" letter-spacing="0.5">MODEL MIX</text>
  <rect x="320" y="204" width="330" height="10" rx="5" fill="#30b0c7"/>
  <rect x="651" y="204" width="110" height="10" fill="#b58cff"/>
  <rect x="762" y="204" width="82" height="10" fill="#ff9f0a"/>
  <rect x="845" y="204" width="31" height="10" rx="5" fill="#78cd82"/>
  <circle cx="326" cy="230" r="3.5" fill="#30b0c7"/><text x="334" y="234" fill="#98989d" font-size="10.5">opus</text>
  <circle cx="382" cy="230" r="3.5" fill="#b58cff"/><text x="390" y="234" fill="#98989d" font-size="10.5">fable</text>
  <circle cx="438" cy="230" r="3.5" fill="#ff9f0a"/><text x="446" y="234" fill="#98989d" font-size="10.5">sonnet</text>
  <circle cx="502" cy="230" r="3.5" fill="#78cd82"/><text x="510" y="234" fill="#98989d" font-size="10.5">haiku</text>

  <!-- totals strip -->
  <text x="300" y="272" fill="#e8e8ea" font-size="13" font-weight="600">16 <tspan fill="#98989d" font-weight="400">active</tspan>&#160;&#160;&#160;&#160;20.9k <tspan fill="#98989d" font-weight="400">burn</tspan>&#160;&#160;&#160;&#160;97% <tspan fill="#98989d" font-weight="400">cache</tspan></text>
  <text x="896" y="272" text-anchor="end" fill="#ff9f0a" font-size="13">&#9888; 2</text>

  <line x1="20" y1="308" x2="900" y2="308" stroke="#ffffff" stroke-opacity="0.1"/>

  <!-- session tree -->
  <g font-size="13">
    <!-- session 1 expanded -->
    <text x="30" y="340" fill="#98989d">&#9662;</text>
    <circle cx="52" cy="336" r="4.5" fill="#78cd82"/>
    <text x="64" y="340" fill="#f2f2f4" font-weight="600">Claude dashboard</text>
    <text x="220" y="340" fill="#30b0c7" font-size="11">opus</text>
    <text x="260" y="340" fill="#98989d" font-size="11">local</text>
    <text x="820" y="340" fill="#98989d" font-size="11.5">20.9k/min</text>
    <text x="892" y="340" text-anchor="end" fill="#e8e8ea" font-size="11.5">2.3M</text>

    <text x="60" y="366" fill="#98989d">&#9662;</text>
    <text x="78" y="366" fill="#98989d" font-weight="500">Agents (3)</text>

    <text x="104" y="390" fill="#78cd82" font-size="11">&#9889;</text>
    <text x="120" y="390" fill="#f2f2f4" font-weight="500">code-reviewer</text>
    <text x="230" y="390" fill="#98989d" font-size="11">&#183; Read engine.rs</text>
    <text x="892" y="390" text-anchor="end" fill="#98989d" font-size="11">210k</text>

    <text x="104" y="412" fill="#6a6a6e" font-size="11">&#10003;</text>
    <text x="120" y="412" fill="#f2f2f4" font-weight="500">explorer</text>
    <text x="892" y="412" text-anchor="end" fill="#98989d" font-size="11">180k</text>

    <text x="60" y="438" fill="#98989d">&#9656;</text>
    <text x="78" y="438" fill="#98989d" font-weight="500">Processes (2)</text>

    <line x1="20" y1="456" x2="900" y2="456" stroke="#ffffff" stroke-opacity="0.05"/>

    <!-- session 2 collapsed -->
    <text x="30" y="484" fill="#98989d">&#9656;</text>
    <circle cx="52" cy="480" r="4.5" fill="#ff9f0a"/>
    <text x="64" y="484" fill="#f2f2f4" font-weight="600">Research AI chat architecture</text>
    <text x="300" y="484" fill="#b58cff" font-size="11">fable</text>
    <text x="820" y="484" fill="#98989d" font-size="11.5">8.1k/min</text>
    <text x="892" y="484" text-anchor="end" fill="#e8e8ea" font-size="11.5">980k</text>
    <line x1="20" y1="502" x2="900" y2="502" stroke="#ffffff" stroke-opacity="0.05"/>

    <!-- session 3 collapsed -->
    <text x="30" y="530" fill="#98989d">&#9656;</text>
    <circle cx="52" cy="526" r="4.5" fill="#78cd82"/>
    <text x="64" y="530" fill="#f2f2f4" font-weight="600">Blog post benchmarks</text>
    <text x="300" y="530" fill="#ff9f0a" font-size="11">sonnet</text>
    <text x="820" y="530" fill="#98989d" font-size="11.5">3.4k/min</text>
    <text x="892" y="530" text-anchor="end" fill="#e8e8ea" font-size="11.5">221k</text>
    <line x1="20" y1="548" x2="900" y2="548" stroke="#ffffff" stroke-opacity="0.05"/>

    <!-- session 4 collapsed -->
    <text x="30" y="576" fill="#98989d">&#9656;</text>
    <circle cx="52" cy="572" r="4.5" fill="#6a6a6e"/>
    <text x="64" y="576" fill="#c9c9ce" font-weight="600">Admin monitoring</text>
    <text x="300" y="576" fill="#78cd82" font-size="11">haiku</text>
    <text x="820" y="576" fill="#98989d" font-size="11.5">idle</text>
    <text x="892" y="576" text-anchor="end" fill="#e8e8ea" font-size="11.5">64k</text>
  </g>

  <!-- footer -->
  <line x1="0" y1="620" x2="920" y2="620" stroke="#ffffff" stroke-opacity="0.1"/>
  <circle cx="30" cy="640" r="4" fill="#78cd82"/>
  <text x="42" y="644" fill="#98989d" font-size="11.5">Live</text>
  <text x="600" y="644" fill="#c9c9ce" font-size="11.5">&#9744; Hide inactive</text>
  <text x="710" y="644" fill="#c9c9ce" font-size="11.5">&#9745; Hide done</text>
  <text x="806" y="644" fill="#c9c9ce" font-size="11.5">&#9744; Start with menu bar only</text>
</svg>
