<svg xmlns="http://www.w3.org/2000/svg" viewBox="0 0 620 305" font-family="-apple-system,BlinkMacSystemFont,Helvetica,Arial,sans-serif">
<rect x="0" y="8" width="620" height="30" rx="7" fill="#1d1d1f"/>
<rect x="398" y="31" width="72" height="1" fill="#8e8e93" opacity="0.5"/>
<rect x="398" y="30" width="2" height="1" fill="rgb(77,194,79)"/>
<rect x="401" y="30" width="2" height="1" fill="rgb(86,192,76)"/>
<rect x="404" y="30" width="2" height="1" fill="rgb(82,193,77)"/>
<rect x="407" y="29" width="2" height="2" fill="rgb(94,191,73)"/>
<rect x="410" y="29" width="2" height="2" fill="rgb(103,189,69)"/>
<rect x="413" y="29" width="2" height="2" fill="rgb(99,190,71)"/>
<rect x="416" y="29" width="2" height="2" fill="rgb(111,187,66)"/>
<rect x="419" y="28" width="2" height="3" fill="rgb(128,184,59)"/>
<rect x="422" y="28" width="2" height="3" fill="rgb(120,186,63)"/>
<rect x="425" y="27" width="2" height="4" fill="rgb(145,181,53)"/>
<rect x="428" y="26" width="2" height="5" fill="rgb(162,177,46)"/>
<rect x="431" y="27" width="2" height="4" fill="rgb(154,179,50)"/>
<rect x="434" y="25" width="2" height="6" fill="rgb(187,172,36)"/>
<rect x="437" y="25" width="2" height="6" fill="rgb(204,169,30)"/>
<rect x="440" y="25" width="2" height="6" fill="rgb(196,171,33)"/>
<rect x="443" y="23" width="2" height="8" fill="rgb(238,162,17)"/>
<rect x="446" y="22" width="2" height="9" fill="rgb(255,148,16)"/>
<rect x="449" y="23" width="2" height="8" fill="rgb(255,159,10)"/>
<rect x="452" y="21" width="2" height="10" fill="rgb(255,125,28)"/>
<rect x="455" y="19" width="2" height="12" fill="rgb(255,103,40)"/>
<rect x="458" y="20" width="2" height="11" fill="rgb(255,114,34)"/>
<rect x="461" y="18" width="2" height="13" fill="rgb(255,80,52)"/>
<rect x="464" y="16" width="2" height="15" fill="rgb(255,69,58)"/>
<rect x="467" y="15" width="2" height="16" fill="rgb(255,69,58)"/>
<text x="478" y="28" fill="#f2f2f7" font-size="13" font-variant-numeric="tabular-nums">46k</text>
<text x="606" y="28" fill="#c7c7cc" font-size="13" text-anchor="end">Mon 21:14</text>
<rect x="80" y="44" width="300" height="218" rx="10" fill="#ffffff" stroke="#d2d2d7"/>
<text x="94" y="67.5" fill="#6e6e73" font-size="12">3 active · 46k tok/min · Σ 4.2M · cache 91%</text>
<line x1="90" y1="78" x2="370" y2="78" stroke="#e5e5ea"/>
<text x="94" y="97.5" fill="#d70015" font-size="12.5">⚠ runaway loop — webapp: 62k tok/min · no user turn</text>
<rect x="85" y="110" width="290" height="26" rx="6" fill="#0a60ff"/>
<text x="94" y="127.5" font-size="13.5" fill="#ffffff">webapp<tspan fill="#d8e5ff" font-size="12">   24k tok/min</tspan></text>
<text x="368" y="127.5" fill="#d8e5ff" font-size="12" text-anchor="end">›</text>
<text x="94" y="157.5" font-size="13.5" fill="#1d1d1f">ccwatch<tspan fill="#8e8e93" font-size="12">   16k tok/min</tspan></text>
<text x="368" y="157.5" fill="#8e8e93" font-size="12" text-anchor="end">›</text>
<text x="94" y="187.5" font-size="13.5" fill="#1d1d1f">remote-worker<tspan fill="#8e8e93" font-size="12">   8k tok/min  ·  demo-host</tspan></text>
<text x="368" y="187.5" fill="#8e8e93" font-size="12" text-anchor="end">›</text>
<line x1="90" y1="198" x2="370" y2="198" stroke="#e5e5ea"/>
<text x="94" y="217.5" fill="#1d1d1f" font-size="13.5">Open TUI dashboard</text>
<text x="94" y="247.5" fill="#1d1d1f" font-size="13.5">Quit ccwatch</text>
<rect x="384" y="108" width="250" height="190" rx="10" fill="#ffffff" stroke="#d2d2d7"/>
<text x="398" y="129" fill="#8e8e93" font-size="12">running · opus-4-8 · cpu 34% · 420 MB</text>
<text x="398" y="155" fill="#8e8e93" font-size="12">cwd ~/code/webapp</text>
<text x="398" y="181" fill="#8e8e93" font-size="12">in 4k · out 8k · cw 2k · cr 180k · 12 msgs</text>
<line x1="394" y1="203" x2="624" y2="203" stroke="#e5e5ea"/>
<text x="398" y="233" fill="#1d1d1f" font-size="13">Pause (SIGSTOP)</text>
<text x="398" y="259" fill="#1d1d1f" font-size="13">Resume (SIGCONT)</text>
<text x="398" y="285" fill="#d70015" font-size="13">Kill session…</text>
</svg>