<svg xmlns="http://www.w3.org/2000/svg" viewBox="0 0 560 250" font-family="-apple-system,BlinkMacSystemFont,Helvetica,Arial,sans-serif">
<rect x="0" y="8" width="560" height="30" rx="7" fill="#1d1d1f"/>
<rect x="300" y="30" width="2" height="2" fill="rgb(115,208,112)"/>
<rect x="303" y="30" width="2" height="2" fill="rgb(128,208,108)"/>
<rect x="306" y="30" width="2" height="2" fill="rgb(121,208,110)"/>
<rect x="309" y="29" width="2" height="3" fill="rgb(140,207,103)"/>
<rect x="312" y="29" width="2" height="3" fill="rgb(134,207,105)"/>
<rect x="315" y="29" width="2" height="3" fill="rgb(146,206,101)"/>
<rect x="318" y="29" width="2" height="3" fill="rgb(140,207,103)"/>
<rect x="321" y="28" width="2" height="4" fill="rgb(159,205,97)"/>
<rect x="324" y="28" width="2" height="4" fill="rgb(152,206,99)"/>
<rect x="327" y="27" width="2" height="5" fill="rgb(171,205,93)"/>
<rect x="330" y="28" width="2" height="4" fill="rgb(165,205,95)"/>
<rect x="333" y="26" width="2" height="6" fill="rgb(184,204,89)"/>
<rect x="336" y="27" width="2" height="5" fill="rgb(178,204,91)"/>
<rect x="339" y="25" width="2" height="7" fill="rgb(202,202,82)"/>
<rect x="342" y="26" width="2" height="6" fill="rgb(190,203,87)"/>
<rect x="345" y="24" width="2" height="8" fill="rgb(221,201,76)"/>
<rect x="348" y="25" width="2" height="7" fill="rgb(209,202,80)"/>
<rect x="351" y="23" width="2" height="9" fill="rgb(240,200,70)"/>
<rect x="354" y="24" width="2" height="8" fill="rgb(228,201,74)"/>
<rect x="357" y="22" width="2" height="10" fill="rgb(240,180,72)"/>
<rect x="360" y="22" width="2" height="10" fill="rgb(240,190,71)"/>
<rect x="363" y="20" width="2" height="12" fill="rgb(240,165,73)"/>
<rect x="366" y="19" width="2" height="13" fill="rgb(240,150,74)"/>
<rect x="369" y="21" width="2" height="11" fill="rgb(240,170,72)"/>
<rect x="372" y="18" width="2" height="14" fill="rgb(240,130,76)"/>
<rect x="375" y="19" width="2" height="13" fill="rgb(240,145,75)"/>
<rect x="378" y="16" width="2" height="16" fill="rgb(240,110,78)"/>
<rect x="381" y="17" width="2" height="15" fill="rgb(240,120,77)"/>
<rect x="384" y="15" width="2" height="17" fill="rgb(240,90,79)"/>
<rect x="387" y="16" width="2" height="16" fill="rgb(240,100,78)"/>
<rect x="390" y="14" width="2" height="18" fill="rgb(240,80,80)"/>
<rect x="393" y="14" width="2" height="18" fill="rgb(240,85,80)"/>
<text x="404" y="28" fill="#f2f2f7" font-size="13" font-variant-numeric="tabular-nums">⚡3 · 48k</text>
<text x="546" y="28" fill="#c7c7cc" font-size="13" text-anchor="end">Mon 21:14</text>
<rect x="252" y="44" width="288" height="170" rx="10" fill="#ffffff" stroke="#d2d2d7" stroke-width="1"/>
<text x="266" y="65.0" fill="#6e6e73" font-size="12.5">3 active · 48k tok/min · cache 91%</text>
<line x1="252" y1="78" x2="540" y2="78" stroke="#f0f0f2"/>
<text x="266" y="99.0" fill="#1d1d1f" font-size="13.5">webapp</text>
<text x="526" y="99.0" fill="#6e6e73" font-size="12.5" text-anchor="end" font-variant-numeric="tabular-nums">24k tok/min</text>
<line x1="252" y1="112" x2="540" y2="112" stroke="#f0f0f2"/>
<text x="266" y="133.0" fill="#1d1d1f" font-size="13.5">ccwatch</text>
<text x="526" y="133.0" fill="#6e6e73" font-size="12.5" text-anchor="end" font-variant-numeric="tabular-nums">16k tok/min</text>
<line x1="252" y1="146" x2="540" y2="146" stroke="#f0f0f2"/>
<text x="266" y="167.0" fill="#1d1d1f" font-size="13.5">remote-worker</text>
<rect x="370.2" y="155.0" width="34" height="16" rx="8" fill="#e6f1fb"/>
<text x="387.2" y="167.0" fill="#185fa5" font-size="11" text-anchor="middle">demo-host</text>
<text x="526" y="167.0" fill="#6e6e73" font-size="12.5" text-anchor="end" font-variant-numeric="tabular-nums">8k tok/min</text>
<line x1="252" y1="180" x2="540" y2="180" stroke="#e5e5ea"/>
<text x="266" y="201.0" fill="#1d1d1f" font-size="13.5">Quit ccwatch</text>
</svg>